<?xml version="1.0" encoding="UTF-8" standalone="no"?><!DOCTYPE svg PUBLIC "-//W3C//DTD SVG 1.1//EN" "http://www.w3.org/Graphics/SVG/1.1/DTD/svg11.dtd"><svg width="100%" height="100%" viewBox="0 0 450 450" version="1.1" xmlns="http://www.w3.org/2000/svg" xmlns:xlink="http://www.w3.org/1999/xlink" xml:space="preserve" xmlns:serif="http://www.serif.com/" style="fill-rule:evenodd;clip-rule:evenodd;stroke-linecap:square;stroke-miterlimit:2;"><g><path d="M227.893,353.495l0,-256.99l-69.177,0c-12.176,0 -21.475,0.818 -27.897,2.454c-9.007,2.103 -16.554,6.106 -22.642,12.008c-6.088,5.902 -10.987,14.17 -14.699,24.805c-3.711,10.635 -5.566,22.322 -5.566,35.06c0,21.854 4.962,40.348 14.886,55.483c9.924,15.134 27.855,22.701 53.791,22.701l47.036,0l0,104.479l24.268,0Zm-24.268,-134.806l-47.411,0c-15.679,0 -26.812,-4.09 -33.401,-12.271c-6.588,-8.181 -9.882,-19.692 -9.882,-34.534c0,-10.752 1.939,-19.955 5.817,-27.61c3.878,-7.655 8.986,-12.709 15.324,-15.163c4.086,-1.52 11.634,-2.279 22.642,-2.279l46.911,0l0,91.857Z" style="fill:#afe6ff;fill-rule:nonzero;stroke:#fff;stroke-width:0.56px;"/><path d="M204.183,353.495l0,-256.99l79.441,0c15.97,0 28.111,2.308 36.421,6.924c8.311,4.616 14.952,12.768 19.922,24.454c4.97,11.687 7.455,24.601 7.455,38.742c0,18.231 -4.115,33.599 -12.344,46.104c-8.229,12.505 -20.94,20.452 -38.132,23.841c6.274,4.324 11.041,8.59 14.3,12.797c6.925,9.115 13.484,20.51 19.677,34.183l31.165,69.945l-29.821,0l-23.71,-53.466c-6.926,-15.427 -12.629,-27.23 -17.111,-35.411c-4.481,-8.181 -8.494,-13.907 -12.038,-17.18c-3.544,-3.272 -7.15,-5.551 -10.816,-6.836c-2.689,-0.818 -7.089,-1.227 -13.2,-1.227l-27.499,0l0,114.12l-23.71,0Zm23.71,-143.571l50.965,0c10.837,0 19.31,-1.607 25.421,-4.821c6.111,-3.213 10.755,-8.356 13.933,-15.426c3.178,-7.071 4.767,-14.755 4.767,-23.052c0,-12.154 -3.076,-22.146 -9.228,-29.977c-6.152,-7.83 -15.868,-11.745 -29.149,-11.745l-56.709,0l0,85.021Z" style="fill:#fff;fill-rule:nonzero;stroke:#fff;stroke-width:0.56px;stroke-linecap:butt;stroke-linejoin:round;"/></g><path d="M439,51.622c0,-22.972 -18.65,-41.622 -41.622,-41.622l-344.756,0c-22.972,0 -41.622,18.65 -41.622,41.622l0,346.756c0,22.972 18.65,41.622 41.622,41.622l344.756,0c22.972,0 41.622,-18.65 41.622,-41.622l0,-346.756Z" style="fill:none;stroke:#fff;stroke-width:8.33px;stroke-miterlimit:1.5;"/></svg>